<svg width="41" height="41" fill="none" xmlns="http://www.w3.org/2000/svg"><g clip-path="url(#a)" fill="#fff"><path d="M38.274 21.031a1.201 1.201 0 0 1 0-1.062l1.529-3.128a3.56 3.56 0 0 0-1.536-4.727l-3.076-1.632a1.202 1.202 0 0 1-.624-.859l-.602-3.43a3.56 3.56 0 0 0-4.02-2.92l-3.448.487a1.201 1.201 0 0 1-1.01-.328L22.985 1.01a3.559 3.559 0 0 0-4.97 0l-2.502 2.421c-.27.261-.638.38-1.01.328l-3.448-.487a3.559 3.559 0 0 0-4.02 2.92l-.602 3.43c-.065.37-.293.683-.624.86l-3.076 1.631a3.56 3.56 0 0 0-1.536 4.727l1.53 3.128c.164.338.164.725 0 1.062l-1.53 3.128a3.56 3.56 0 0 0 1.536 4.727l3.076 1.632c.331.176.559.49.624.859l.601 3.43a3.557 3.557 0 0 0 4.021 2.92l3.448-.487c.371-.053.74.067 1.01.328l2.502 2.421a3.562 3.562 0 0 0 4.97 0l2.502-2.42c.27-.262.638-.381 1.01-.329l3.448.488a3.559 3.559 0 0 0 4.02-2.922l.602-3.429c.065-.37.293-.683.624-.86l3.076-1.631a3.56 3.56 0 0 0 1.536-4.727l-1.53-3.128Zm-1.115 5.766-3.076 1.632a3.551 3.551 0 0 0-1.845 2.54l-.601 3.429a1.204 1.204 0 0 1-1.36.988l-3.448-.488a3.55 3.55 0 0 0-2.986.97l-2.502 2.421a1.204 1.204 0 0 1-1.682 0l-2.502-2.42a3.547 3.547 0 0 0-2.986-.97l-3.447.487a1.205 1.205 0 0 1-1.36-.988l-.602-3.43a3.55 3.55 0 0 0-1.845-2.54L3.84 26.798a1.204 1.204 0 0 1-.52-1.6l1.53-3.128a3.551 3.551 0 0 0 0-3.139l-1.53-3.128a1.204 1.204 0 0 1 .52-1.599l3.076-1.632a3.551 3.551 0 0 0 1.845-2.54l.601-3.429c.114-.646.711-1.08 1.36-.988l3.448.488a3.551 3.551 0 0 0 2.986-.97l2.502-2.421a1.204 1.204 0 0 1 1.682 0l2.502 2.42a3.55 3.55 0 0 0 2.985.97l3.448-.487a1.204 1.204 0 0 1 1.36.988l.602 3.43a3.551 3.551 0 0 0 1.845 2.54l3.076 1.631c.58.308.807 1.01.52 1.6l-1.53 3.127a3.55 3.55 0 0 0 0 3.14l1.53 3.128c.287.589.06 1.291-.52 1.599Z"/><path d="M29.14 11.86a1.182 1.182 0 0 0-1.673 0L11.861 27.468a1.182 1.182 0 0 0 1.672 1.672l15.606-15.606a1.182 1.182 0 0 0 0-1.672ZM15.77 9.859a4.34 4.34 0 0 0-4.335 4.335 4.34 4.34 0 0 0 4.336 4.335 4.34 4.34 0 0 0 4.335-4.335 4.34 4.34 0 0 0-4.335-4.335Zm0 6.306a1.973 1.973 0 0 1-1.97-1.97c0-1.087.884-1.971 1.97-1.971 1.087 0 1.971.884 1.971 1.97 0 1.087-.884 1.97-1.97 1.97ZM25.23 22.47a4.34 4.34 0 0 0-4.336 4.336 4.34 4.34 0 0 0 4.335 4.335 4.34 4.34 0 0 0 4.336-4.335 4.34 4.34 0 0 0-4.336-4.335Zm0 6.307a1.973 1.973 0 0 1-1.971-1.971c0-1.087.884-1.97 1.97-1.97 1.087 0 1.97.884 1.97 1.97 0 1.087-.883 1.97-1.97 1.97Z"/></g><defs><clipPath id="a"><path fill="#fff" d="M0 0h41v41H0z"/></clipPath></defs></svg>