<svg width="48" height="48" fill="none" xmlns="http://www.w3.org/2000/svg"><g clip-path="url(#a)" fill="#fff"><path d="m12.053 20.97-1.636-1.616-.026-4.05a.703.703 0 0 0-.703-.698h-.005a.703.703 0 0 0-.699.708l.029 4.34a.703.703 0 0 0 .209.496l1.842 1.82a.7.7 0 0 0 .995-.006.703.703 0 0 0-.006-.995ZM31 26.398l-.002-.018a.636.636 0 0 0-.01-.057l-.005-.02a.714.714 0 0 0-.015-.052l-.008-.02a.755.755 0 0 0-.02-.049l-.01-.021a.743.743 0 0 0-.065-.106l-.015-.02a.673.673 0 0 0-.036-.041l-.012-.014a.673.673 0 0 0-.056-.05v-.001l-4.286-3.494a.703.703 0 1 0-.889 1.09l2.755 2.246H19.22a.703.703 0 1 0 0 1.406h9.107l-2.755 2.246a.703.703 0 0 0 .889 1.09l4.286-3.494v-.001a.728.728 0 0 0 .056-.05l.012-.014a.646.646 0 0 0 .036-.041l.015-.02a.734.734 0 0 0 .065-.106l.01-.021a.705.705 0 0 0 .02-.049l.008-.02a.69.69 0 0 0 .015-.053l.005-.02a.634.634 0 0 0 .01-.057L31 26.55a.707.707 0 0 0 0-.152Z"/><path d="M16.553 12.746a9.87 9.87 0 0 0-1.037-.892l1.002-1.214a.703.703 0 1 0-1.085-.895l-1.11 1.346a9.633 9.633 0 0 0-3.904-1.132v-.634h1.414c.719 0 1.304-.585 1.304-1.304V6.91c0-.72-.585-1.304-1.304-1.304H7.542c-.72 0-1.304.585-1.304 1.304V8.02c0 .719.585 1.304 1.304 1.304h1.47v.634a9.637 9.637 0 0 0-3.943 1.153L3.941 9.745a.703.703 0 1 0-1.084.895l1.023 1.24a9.873 9.873 0 0 0-1.067.932A9.652 9.652 0 0 0 0 19.697a9.652 9.652 0 0 0 2.879 6.856 9.65 9.65 0 0 0 6.835 2.813h.048a9.652 9.652 0 0 0 6.857-2.878 9.652 9.652 0 0 0 2.812-6.884 9.653 9.653 0 0 0-2.878-6.857ZM7.644 7.92v-.907h4.086v.907H7.644Zm7.976 17.578a8.255 8.255 0 0 1-5.864 2.462h-.042a8.255 8.255 0 0 1-5.846-2.406 8.255 8.255 0 0 1-2.462-5.864 8.255 8.255 0 0 1 2.406-5.887 8.255 8.255 0 0 1 5.864-2.462h.04c2.205 0 4.28.853 5.847 2.406a8.255 8.255 0 0 1 2.462 5.864 8.255 8.255 0 0 1-2.405 5.887Z"/><path d="M9.716 12.19H9.68a7.411 7.411 0 0 0-5.264 2.21 7.41 7.41 0 0 0-2.16 5.285 7.41 7.41 0 0 0 2.21 5.264 7.41 7.41 0 0 0 5.249 2.16h.036a7.41 7.41 0 0 0 5.264-2.21 7.41 7.41 0 0 0 2.16-5.285c-.02-4.1-3.363-7.423-7.459-7.423Zm4.3 11.719a6.013 6.013 0 0 1-4.271 1.793h-.03a6.014 6.014 0 0 1-4.259-1.752 6.013 6.013 0 0 1-1.793-4.271 6.013 6.013 0 0 1 1.752-4.289 6.013 6.013 0 0 1 4.272-1.793h.029a6.06 6.06 0 0 1 6.052 6.023 6.013 6.013 0 0 1-1.752 4.289ZM13.179 35.59a2.116 2.116 0 0 0-1.729.107c-.53.27-.943.735-1.16 1.31-.46 1.212.09 2.547 1.224 2.976.24.091.49.136.74.136.335 0 .672-.08.989-.242.53-.27.943-.736 1.16-1.31.46-1.212-.09-2.547-1.224-2.977Zm-.09 2.478a1.02 1.02 0 0 1-.484.555.728.728 0 0 1-.592.045c-.41-.155-.592-.676-.409-1.162a1.02 1.02 0 0 1 .484-.556.78.78 0 0 1 .354-.088.67.67 0 0 1 .239.044c.409.155.592.676.408 1.162ZM40.267 35.59c-1.134-.429-2.43.206-2.89 1.417-.458 1.212.091 2.547 1.226 2.976.24.091.489.136.739.136.335 0 .672-.081.99-.242.53-.27.942-.736 1.16-1.31.459-1.212-.09-2.547-1.225-2.977Zm-.09 2.478a1.02 1.02 0 0 1-.483.555.727.727 0 0 1-.593.045c-.41-.155-.592-.676-.408-1.162.149-.393.493-.644.835-.644.081 0 .162.014.24.044.41.155.593.676.409 1.162Z"/><path d="M47.551 25.66v-.001a537.947 537.947 0 0 1-3.25-3.717 1.86 1.86 0 0 0-1.41-.627l-5.91-.008c.18-1.112.353-2.218.512-3.302.065-.452-.063-.901-.35-1.232a1.546 1.546 0 0 0-1.172-.523c-4.922-.001-7.548-.003-11.718-.005l-2.655-.002a.703.703 0 0 0 0 1.406l2.654.002 11.718.006c.05 0 .09.013.11.037.026.03.026.078.022.109-.342 2.32-.748 4.754-1.145 7.121-.58 3.417-1.172 6.922-1.62 10.34l-.005.04H30.786l-.655-.001a2553.485 2553.485 0 0 1-3.166-.005h-.294a9163.37 9163.37 0 0 1-3.377-.007h-.143l-3.49-.008-3.56-.007a4.085 4.085 0 0 0-1.429-1.5l-.056-.035a4.545 4.545 0 0 0-.372-.194l-.067-.03a4.144 4.144 0 0 0-.376-.143l-.106-.031-.084-.024a3.955 3.955 0 0 0-.147-.036l-.039-.01a4.005 4.005 0 0 0-.178-.034h-.005a4.074 4.074 0 0 0-1.926.14l-.005.001c-.05.016-.1.034-.151.052l-.058.021a4.81 4.81 0 0 0-.117.046l-.05.02-.047.02a5.468 5.468 0 0 0-.211.1l-.033.015-.009.005c-.057.029-.114.06-.17.091l-.07.041-.093.057a4.81 4.81 0 0 0-.149.096 4.774 4.774 0 0 0-1.305 1.321h-.744l-1.662-.003.602-3.72a.703.703 0 1 0-1.388-.224l-.735 4.535v.005l-.001.005-.14.956a1.81 1.81 0 0 0 1.79 2.075h1.516c.055.294.136.582.246.86.444 1.124 1.285 1.968 2.368 2.379.463.175.94.258 1.413.258 1.79 0 3.527-1.189 4.246-3.084.05-.134.094-.269.133-.405l15.298.02 1.903.002h.002l1.36.002h.126c.054.282.134.56.24.829.443 1.123 1.284 1.967 2.368 2.378.46.174.94.261 1.422.261.651 0 1.308-.159 1.927-.474 1.054-.536 1.874-1.464 2.31-2.613.046-.123.086-.247.123-.371h.876c.995 0 1.893-.762 2.044-1.735.52-3.38 1.063-6.942 1.492-10.076a1.838 1.838 0 0 0-.432-1.466ZM8.196 36.686l-.022.085-.032.125c-.009.035-.016.07-.023.106a4.97 4.97 0 0 0-.044.233l-.012.068-.021.164-.003.02H6.57a.4.4 0 0 1-.306-.14.401.401 0 0 1-.095-.324l.053-.355 1.88.001H8.2l-.004.017Zm7.038 1.402-.001.012a3.643 3.643 0 0 1-.19.708c-.633 1.671-2.357 2.573-3.845 2.01-.708-.27-1.262-.83-1.558-1.58a3.267 3.267 0 0 1-.222-1.048v-.026c-.007-.178 0-.355.02-.53v-.004a3.432 3.432 0 0 1 .052-.317l.01-.05.028-.112.014-.058c.01-.037.022-.074.034-.111l.016-.054a3.599 3.599 0 0 1 .145-.373l.02-.044a3.57 3.57 0 0 1 .103-.205l.009-.015c.651-1.178 1.89-1.83 3.058-1.677.023.003.047.005.07.01a2.415 2.415 0 0 1 .258.054l.04.012a2.615 2.615 0 0 1 .327.118l.078.037.045.02.105.057.012.007c.506.29.91.75 1.156 1.325.242.564.316 1.199.216 1.834Zm17.83-.572-1.272-.002-15.108-.019a4.746 4.746 0 0 0-.077-.813l3.052.007c2.08.005 4.192.01 6.314.013h.51c.328.002.656.002.984.002l.83.002h.765l1.055.002h.625l1.167.002H33.157l-.093.806Zm9.254.6v.008c-.04.23-.1.46-.186.684-.311.821-.89 1.481-1.632 1.858-.719.366-1.505.42-2.213.151-.709-.268-1.262-.83-1.558-1.58a3.267 3.267 0 0 1-.222-1.032v-.015a3.496 3.496 0 0 1 .016-.532l.004-.027a3.5 3.5 0 0 1 .048-.3l.014-.066c.007-.034.015-.068.024-.101l.018-.069a3.4 3.4 0 0 1 .031-.106l.018-.06c.018-.055.037-.11.058-.165.311-.82.89-1.48 1.632-1.858.049-.025.098-.048.148-.07l.048-.02a2.91 2.91 0 0 1 .101-.041l.057-.021a2.8 2.8 0 0 1 .25-.077l.057-.015.102-.022.05-.01c.046-.008.091-.015.136-.02l.018-.003c.051-.007.102-.011.154-.014l.041-.002.112-.004h.039c.07.001.14.004.209.01h.005c.07.007.14.017.21.029l.037.006c.067.013.134.028.2.046l.036.01a2.64 2.64 0 0 1 .325.117l.072.034.04.02c1.106.552 1.73 1.878 1.501 3.257Zm4.271-11.181c-.427 3.122-.97 6.678-1.488 10.05-.044.285-.356.545-.654.545l-.673-.001a4.684 4.684 0 0 0-.325-1.71c-.396-1.005-1.112-1.786-2.034-2.234a3.837 3.837 0 0 0-.082-.038c-.026-.012-.05-.024-.077-.035a4.061 4.061 0 0 0-3.116-.042 4.522 4.522 0 0 0-.408.183c-1.053.536-1.874 1.464-2.31 2.613-.033.091-.064.182-.093.274l-.024.08a4.96 4.96 0 0 0-.061.223l-.015.059c-.022.093-.041.186-.057.279l-.01.058c-.014.086-.026.171-.035.256l-.003.024h-.067l-.578-.001c.055-.477.113-.959.145-1.227l.034-.279c.436-3.408 1.039-7.002 1.623-10.48l.058-.35.02-.117c.134-.791.268-1.576.398-2.353l6.132.009c.146 0 .27.05.35.141a533.396 533.396 0 0 0 3.258 3.727c.078.088.11.211.092.346Z"/><path d="M45.314 26.953a512.62 512.62 0 0 1-2.492-2.862 1.182 1.182 0 0 0-.897-.402l-3.347-.004h-.002c-.641 0-1.223.492-1.325 1.122l-.101.62a875.02 875.02 0 0 0-.69 4.277c-.053.341.041.683.26.938.22.26.551.408.906.408l6.34.005h.001c.652 0 1.235-.498 1.327-1.135a812.8 812.8 0 0 0 .293-2.03 1.168 1.168 0 0 0-.273-.937Zm-1.401 2.696-6.02-.005c.212-1.333.432-2.683.645-3.991l.091-.562 3.202.004c.762.882 1.551 1.788 2.35 2.698a811.99 811.99 0 0 1-.268 1.856Z"/></g><defs><clipPath id="a"><path fill="#fff" d="M0 0h48v48H0z"/></clipPath></defs></svg>