<svg width="41" height="41" fill="none" xmlns="http://www.w3.org/2000/svg"><g clip-path="url(#a)" fill="#fff"><path d="M39.544 5.656c-.88-.08-1.66.569-1.74 1.45l-.212 2.327C33.992 3.78 27.742 0 20.5 0 12.71 0 5.844 4.446 2.436 11.12a1.601 1.601 0 1 0 2.853 1.456c2.884-5.647 8.676-9.373 15.21-9.373 5.956 0 11.331 3.102 14.41 7.96l-2.283-1.63a1.602 1.602 0 0 0-1.861 2.606l6.924 4.946c1.015.723 2.415.061 2.526-1.158l.778-8.53c.08-.882-.569-1.66-1.45-1.741ZM37.865 27.726a1.602 1.602 0 0 0-2.155.698c-2.884 5.648-8.676 9.373-15.21 9.373-5.956 0-11.331-3.101-14.41-7.96l2.283 1.63a1.602 1.602 0 0 0 1.862-2.606L3.31 23.915C2.307 23.2.896 23.842.784 25.073l-.778 8.53a1.602 1.602 0 1 0 3.19.292l.213-2.328C7.009 37.22 13.259 41 20.499 41c7.79 0 14.656-4.446 18.064-11.12a1.602 1.602 0 0 0-.698-2.154Z"/></g><defs><clipPath id="a"><path fill="#fff" d="M0 0h41v41H0z"/></clipPath></defs></svg>