<svg width="43" height="43" fill="none" xmlns="http://www.w3.org/2000/svg"><g clip-path="url(#a)" fill="#fff"><path d="M39.52 11.072c-.023-1.161-.044-2.258-.044-3.319 0-.831-.673-1.505-1.505-1.505-6.437 0-11.337-1.85-15.423-5.822a1.505 1.505 0 0 0-2.098 0c-4.085 3.972-8.985 5.822-15.421 5.822-.831 0-1.505.674-1.505 1.505 0 1.061-.021 2.158-.044 3.32-.206 10.803-.488 25.6 17.526 31.844a1.504 1.504 0 0 0 .986 0c18.016-6.244 17.734-21.041 17.527-31.845ZM21.5 39.898C6.05 34.285 6.282 21.99 6.49 11.13c.013-.652.025-1.284.033-1.903 6.029-.254 10.85-2.081 14.976-5.676 4.128 3.595 8.949 5.422 14.978 5.676.008.62.02 1.25.033 1.902.207 10.861.44 23.156-15.01 28.769Z"/><path d="m26.682 16.272-7.264 7.264-3.1-3.1a1.505 1.505 0 0 0-2.129 2.128l4.165 4.165a1.5 1.5 0 0 0 1.064.44 1.5 1.5 0 0 0 1.064-.44L28.81 18.4a1.505 1.505 0 1 0-2.128-2.128Z"/></g><defs><clipPath id="a"><path fill="#fff" d="M0 0h43v43H0z"/></clipPath></defs></svg>